<svg  viewBox="0 0 512 512" xmlns="http://www.w3.org/2000/svg"><path d="m467 0h-90c-24.902344 0-45 20.097656-45 45v60h180v-60c0-24.902344-20.097656-45-45-45zm0 0" fill="#e63950"/><path d="m512 105h-90v-105h45c24.902344 0 45 20.097656 45 45zm0 0" fill="#ae2538"/><path d="m376.222656 229.746094-28.445312-9.492188 19.992187-60 28.449219 9.492188zm0 0" fill="#7c8388"/><path d="m467.777344 229.746094-19.996094-60 28.449219-9.492188 19.992187 60zm0 0" fill="#575f64"/><path d="m496.398438 119.398438 15.601562 15.601562v45h-180v-45l14.398438-16.800781-14.398438-13.199219 24.902344-13.199219h125.699218l29.398438 13.199219zm0 0" fill="#e63950"/><path d="m512 105-15.601562 14.398438 15.601562 15.601562v45h-90v-88.199219h60.601562zm0 0" fill="#ae2538"/><path d="m407 225h30v121h-30zm0 0" fill="#575f64"/><path d="m108.441406 464.421875-15.4375-25.722656 99.554688-60.121094 15.4375 25.722656zm0 0" fill="#575f64"/><path d="m256 361h136v30h-136zm0 0" fill="#575f64"/><path d="m422 225h15v121h-15zm0 0" fill="#32393f"/><g fill="#e63950"><path d="m75 512c-24.8125 0-45-20.1875-45-45s20.1875-45 45-45 45 20.1875 45 45-20.1875 45-45 45zm0 0"/><path d="m226 421c-24.8125 0-45-20.1875-45-45s20.1875-45 45-45 45 20.1875 45 45-20.1875 45-45 45zm0 0"/><path d="m422 331c-24.902344 0-45 20.097656-45 45 0 24.898438 20.097656 45 45 45s45-20.101562 45-45c0-24.902344-20.097656-45-45-45zm0 0"/><path d="m75 182c-41.398438 0-75 33.601562-75 75 0 15.300781 4.5 30.300781 13.5 42.898438l61.5 88.5 61.5-88.5c9-12.597657 13.5-27.597657 13.5-42.898438 0-41.398438-33.601562-75-75-75zm0 120c-24.902344 0-45-20.101562-45-45 0-24.902344 20.097656-45 45-45s45 20.097656 45 45c0 24.898438-20.097656 45-45 45zm0 0"/></g><path d="m482 45v30h-120v-30c0-8.402344 6.597656-15 15-15h90c8.402344 0 15 6.597656 15 15zm0 0" fill="#deecf1"/><path d="m332 210h180v30h-180zm0 0" fill="#7c8388"/><path d="m332 105h60v30h-60zm0 0" fill="#deecf1"/><path d="m452 105h60v30h-60zm0 0" fill="#c5d3dd"/><path d="m482 75h-60v-45h45c8.402344 0 15 6.597656 15 15zm0 0" fill="#c5d3dd"/><path d="m422 210h90v30h-90zm0 0" fill="#575f64"/><path d="m467 376c0 24.898438-20.097656 45-45 45v-90c24.902344 0 45 20.097656 45 45zm0 0" fill="#ae2538"/><path d="m150 257c0 15.300781-4.5 30.300781-13.5 42.898438l-61.5 88.5v-86.398438c24.902344 0 45-20.101562 45-45 0-24.902344-20.097656-45-45-45v-30c41.398438 0 75 33.601562 75 75zm0 0" fill="#ae2538"/></svg>